<svg width="128" height="128" viewBox="0 0 60 72" fill="none" xmlns="http://www.w3.org/2000/svg">
<defs>
  <linearGradient id="flesh" x1="30" y1="8" x2="30" y2="62" gradientUnits="userSpaceOnUse">
    <stop offset="0" stop-color="#D4ED8A"/>
    <stop offset="1" stop-color="#9CCC52"/>
  </linearGradient>
  <radialGradient id="pit" cx="30" cy="44" r="13" gradientUnits="userSpaceOnUse">
    <stop offset="0" stop-color="#FFF9C4"/>
    <stop offset="0.5" stop-color="#FFD740"/>
    <stop offset="1" stop-color="#F9A825"/>
  </radialGradient>
</defs>
<path d="M30 2C18 2 9 12 9 24C9 34 14 44 22 52L30 68L38 52C46 44 51 34 51 24C51 12 42 2 30 2Z" fill="#2E7D32"/>
<path d="M30 8C20 8 13 17 13 27C13 35 17 43 24 49L30 60L36 49C43 43 47 35 47 27C47 17 40 8 30 8Z" fill="url(#flesh)"/>
<circle cx="30" cy="44" r="13" fill="url(#pit)"/>
<path d="M23 44L27.5 48.5L37 38" stroke="#1B5E20" stroke-width="3" stroke-linecap="round" stroke-linejoin="round"/>
</svg>
